# xmcd
#
# Track frame offsets:
#	150
#	17625
#	32925
#	49222
#	66000
#	92037
#	110775
#	127575
#	149487
#	165547
#	185325
#
# Disc length: 3103
#
# Revision: 0
# Processed by: cddbd v1.5.2PL0 Copyright (c) Steve Scherf et al.
# Submitted via: Broken X Disk Manager 4.03.2263
#
DISCID=940c1d0b
DTITLE=Dänu Siegrist Band - Wasser u Brot
DYEAR=2000
DGENRE=
TTITLE0=Blindfisch
TTITLE1=Red mit mir
TTITLE2=Wasser u Brot
TTITLE3=I dem Dorf won'i gebore bi
TTITLE4=Rede isch Silber
TTITLE5=D' Liebi
TTITLE6=Chatz
TTITLE7=Wunder
TTITLE8=Nass u blass
TTITLE9=Blib
TTITLE10=Winterthur
EXTD=
EXTT0=
EXTT1=
EXTT2=
EXTT3=
EXTT4=
EXTT5=
EXTT6=
EXTT7=
EXTT8=
EXTT9=
EXTT10=
PLAYORDER=
